<?xml version="1.0" standalone="no"?><!DOCTYPE svg PUBLIC "-//W3C//DTD SVG 1.1//EN" "http://www.w3.org/Graphics/SVG/1.1/DTD/svg11.dtd" ><svg xmlns="http://www.w3.org/2000/svg"><metadata>Generated by Glyphter</metadata><defs><font id="miidbeditorfont" horiz-adv-x="0"><font-face units-per-em="1024" ascent="1024" descent="0" font-family="miidbeditorfont" font-weight="normal" /><missing-glyph horiz-adv-x="0" /><glyph unicode="&#x0041;" d="M448.868,373.821C448.868,373.821,448.868,391.094,448.868,391.094C448.868,446.231,453.183,481.015,461.826,495.423C470.457,509.797,493.249,530.622,530.236,557.91C546.048,568.564,559.76,582.051,570.683,597.684C578.674,611.541,582.608,627.376,582.046,643.369C583.069,663.306,575.246,682.67,560.681,696.325C546.532,709.171,527.977,716.083,508.871,715.645C455.229,715.645,425.075,677.759,418.411,601.999C418.411,601.999,293.864,619.734,293.864,619.734C303.259,688.211,328.333,740.033,369.096,775.187C410.634,810.623,463.837,829.414,518.412,827.919C573.358,829.672,627.045,811.241,669.325,776.097C708.773,744.022,731.25,695.561,730.228,644.729C730.228,578.96,696.444,523.969,628.866,479.734C599.466,460.325,581.664,445.175,575.471,434.273C569.245,423.372,566.132,403.21,566.143,373.821C566.143,373.821,448.868,373.821,448.868,373.821M447.35,264.738C447.35,212.827,503.544,180.392,548.498,206.342C569.357,218.39,582.214,240.654,582.214,264.738C582.214,316.649,526.021,349.096,481.066,323.134C460.196,311.098,447.35,288.834,447.35,264.738M512.051,917.615C725.047,917.615,897.717,736.02,897.717,512C897.717,287.991,725.047,106.396,512.051,106.396C299.056,106.396,126.385,287.991,126.385,512C126.385,736.02,299.056,917.615,512.051,917.615M512.051,1024C240.727,1024,20,794.327,20,512C20,229.685,240.727,0,512.051,0C783.364,0,1004.103,229.685,1004.103,512C1004.103,794.327,783.364,1024,512.051,1024C512.051,1024,512.051,1024,512.051,1024" class="icon-about"/><glyph unicode="&#x0042;" d="M512.051,1024C240.727,1024,20,794.315,20,512C20,229.685,240.727,0,512.051,0C783.375,0,1004.103,229.685,1004.103,512C1004.103,794.315,783.375,1024,512.051,1024C512.051,1024,512.051,1024,512.051,1024M670.809,142.371C670.809,142.371,578.079,226.077,578.079,226.077C578.079,226.077,512.051,146.844,512.051,146.844C512.051,146.844,446.024,226.077,446.024,226.077C446.024,226.077,353.294,142.371,353.294,142.371C219.52,206.027,126.385,347.533,126.385,512C126.385,736.009,299.056,917.615,512.051,917.615C725.047,917.615,897.717,736.009,897.717,512C897.717,347.533,804.583,206.027,670.809,142.371C670.809,142.371,670.809,142.371,670.809,142.371" class="icon-beard"/><glyph unicode="&#x0043;" d="M641.059,101.271C641.059,101.271,641.059,485.521,641.059,485.521C641.059,542.583,592.781,563.12,566.582,566.169C529.833,557.261,491.506,557.127,454.695,565.759C427.997,561.586,383.125,540.541,383.125,485.521C383.125,485.521,383.125,101.271,383.125,101.271C369.784,99.408,358.29,90.918,352.583,78.71C343.219,60.376,343.326,38.636,352.85,20.391C361.714,6.658,377.382,-1.118,393.674,0.131C393.674,0.131,447.749,0.131,447.749,0.131C447.749,0.131,448.658,0.3,448.658,0.3C474.064,4.768,488.644,23.931,488.644,52.895C489.643,67.323,485.942,81.689,478.095,93.843C478.095,93.843,478.095,232.276,478.095,232.276C478.095,233.141,478.451,253.375,509.751,253.375C509.751,253.375,514.433,253.375,514.433,253.375C543.976,253.375,545.991,235.674,546.09,232.276C546.09,232.276,546.09,93.843,546.09,93.843C538.242,81.689,534.542,67.323,535.54,52.895C535.54,23.931,550.12,4.768,575.526,0.3C575.526,0.3,576.435,0.131,576.435,0.131C576.435,0.131,630.51,0.131,630.51,0.131C646.802,-1.118,662.47,6.658,671.325,20.391C680.858,38.636,680.965,60.376,671.601,78.71C665.894,90.918,654.4,99.408,641.059,101.271C641.059,101.271,641.059,101.271,641.059,101.271M290.5,802.078C290.5,631.498,475.161,524.882,622.886,610.176C691.452,649.761,733.684,722.91,733.684,802.078C733.684,972.658,549.023,1079.275,401.298,993.98C332.733,954.396,290.5,881.247,290.5,802.078" class="icon-body-type"/><glyph unicode="&#x0044;" d="M0,528.992C0,528.992,95.285,625.783,95.285,625.783C95.285,625.783,430.057,442.203,430.057,442.203C430.057,442.203,430.057,399,430.057,399C430.057,399,0,528.992,0,528.992C0,528.992,0,528.992,0,528.992M1024,528.992C1024,528.992,928.715,625.783,928.715,625.783C928.715,625.783,593.943,442.203,593.943,442.203C593.943,442.203,593.943,399,593.943,399C593.943,399,1024,528.992,1024,528.992C1024,528.992,1024,528.992,1024,528.992" class="icon-eyebrows"/><glyph unicode="&#x0045;" d="M307.633,675.051C307.633,675.051,306.591,675.098,306.591,675.098C306.591,675.098,157.107,675.098,157.107,675.098C157.107,675.098,156.074,675.051,156.074,675.051C30.781,669.21,-41.198,529.938,26.503,424.354C55.01,379.895,103.31,352.011,156.065,349.547C156.065,349.547,157.107,349.5,157.107,349.5C157.107,349.5,306.591,349.5,306.591,349.5C306.591,349.5,307.633,349.547,307.633,349.547C432.917,355.387,504.896,494.669,437.195,600.244C408.688,644.712,360.397,672.596,307.633,675.051C307.633,675.051,307.633,675.051,307.633,675.051M44.751,512.303C44.779,575.81,94.697,628.1,158.148,631.076C158.148,631.076,177.578,631.076,177.578,631.076C150.624,605.685,132.794,562.008,132.794,512.303C132.794,462.59,150.624,418.913,177.578,393.521C177.578,393.521,158.148,393.521,158.148,393.521C94.697,396.498,44.779,448.787,44.751,512.303C44.751,512.303,44.751,512.303,44.751,512.303M305.559,393.521C305.559,393.521,286.12,393.521,286.12,393.521C313.074,418.913,330.904,462.59,330.904,512.303C330.904,562.008,313.074,605.685,286.12,631.076C286.12,631.076,305.559,631.076,305.559,631.076C396.987,626.835,449.547,525.204,400.149,448.136C379.343,415.667,344.083,395.307,305.559,393.521C305.559,393.521,305.559,393.521,305.559,393.521M868.926,675.051C868.926,675.051,867.893,675.098,867.893,675.098C867.893,675.098,718.409,675.098,718.409,675.098C718.409,675.098,717.367,675.051,717.367,675.051C592.083,669.21,520.103,529.938,587.796,424.354C616.312,379.895,664.603,352.011,717.367,349.547C717.367,349.547,718.409,349.5,718.409,349.5C718.409,349.5,867.893,349.5,867.893,349.5C867.893,349.5,868.935,349.547,868.935,349.547C994.218,355.387,1066.198,494.669,998.497,600.244C969.989,644.712,921.69,672.596,868.935,675.051C868.935,675.051,868.926,675.051,868.926,675.051M606.053,512.303C606.081,575.81,655.999,628.1,719.441,631.076C719.441,631.076,738.871,631.076,738.871,631.076C711.926,605.685,694.096,562.008,694.096,512.303C694.096,462.59,711.926,418.913,738.871,393.521C738.871,393.521,719.441,393.521,719.441,393.521C655.999,396.498,606.081,448.787,606.053,512.303C606.053,512.303,606.053,512.303,606.053,512.303M866.851,393.521C866.851,393.521,847.422,393.521,847.422,393.521C874.376,418.913,892.196,462.59,892.196,512.303C892.196,562.008,874.376,605.685,847.422,631.076C847.422,631.076,866.851,631.076,866.851,631.076C958.289,626.835,1010.839,525.204,961.451,448.136C940.645,415.667,905.376,395.307,866.851,393.521C866.851,393.521,866.851,393.521,866.851,393.521" class="icon-eyes"/><glyph unicode="&#x0046;" d="M512.217,1024.5C269.946,1020.987,75.304,823.743,75,581.452C75,428.283,179.215,270.669,224.019,210.013C270.544,147.019,391.775,0.5,512.217,0.5C632.659,0.5,753.891,147.019,800.416,210.013C845.219,270.669,949.434,428.283,949.434,581.452C949.131,823.743,754.488,1020.987,512.217,1024.5C512.217,1024.5,512.217,1024.5,512.217,1024.5M512.217,96.323C404.409,96.323,170.833,389.603,170.833,581.452C170.854,770.942,322.757,925.438,512.217,928.677C701.677,925.438,853.581,770.942,853.601,581.452C853.601,389.603,620.026,96.323,512.217,96.323C512.217,96.323,512.217,96.323,512.217,96.323" class="icon-face"/><glyph unicode="&#x0047;" d="M786.298,887.023C662.249,886.828,559.18,791.319,549.57,667.65C549.56,667.65,474.589,667.65,474.589,667.65C460.499,850.037,254.247,948.78,103.336,845.382C-47.575,741.983,-29.962,513.989,135.039,435.001C281.006,365.118,452.599,458.402,473.332,618.892C473.332,618.892,550.817,618.892,550.817,618.892C574.351,437.545,785.382,349.678,930.669,460.73C1075.957,571.791,1046.541,798.477,877.719,868.772C848.745,880.833,817.682,887.034,786.298,887.023C786.298,887.023,786.298,887.023,786.298,887.023M237.85,460.451C92.429,460.451,1.544,617.882,74.25,743.817C146.966,869.761,328.745,869.761,401.451,743.817C418.033,715.101,426.767,682.523,426.767,649.368C426.767,545.033,342.186,460.451,237.85,460.451C237.85,460.451,237.85,460.451,237.85,460.451M786.298,460.451C640.877,460.451,549.993,617.882,622.698,743.817C695.414,869.761,877.183,869.761,949.899,743.817C966.481,715.101,975.205,682.523,975.205,649.368C975.205,545.033,890.634,460.451,786.298,460.451C786.298,460.451,786.298,460.451,786.298,460.451M805.25,319.778C805.25,272.863,856.038,243.54,896.66,267.003C915.518,277.889,927.126,298.005,927.126,319.778C927.126,366.683,876.349,396.006,835.727,372.544C816.868,361.667,805.25,341.542,805.25,319.778M727.971,352.408C673.218,412.815,595.558,447.391,514.026,447.639C514.026,447.639,514.026,447.742,514.026,447.742C513.367,447.742,512.728,447.7,512.079,447.69C511.42,447.7,510.782,447.742,510.123,447.742C510.123,447.742,510.123,447.639,510.123,447.639C428.601,447.391,350.941,412.815,296.188,352.408C260.365,312.496,238.52,261.997,233.957,208.562C234.245,208.315,234.596,208.088,234.884,207.852C259.037,229.182,288.133,237.504,312.276,226.741C336.521,215.947,349.787,188.55,349.962,156.137C354.525,154.973,359.047,153.799,363.764,152.738C375.073,191.3,401.832,218.419,433.071,218.419C468.378,218.419,497.897,183.761,505.92,137.124C507.331,137.103,508.732,137.082,510.123,137.062C510.123,137.062,510.123,137,510.123,137C510.782,137,511.431,137.021,512.079,137.031C512.728,137.021,513.367,137,514.026,137C514.026,137,514.026,137.062,514.026,137.062C515.427,137.082,516.828,137.103,518.228,137.124C526.252,183.761,555.781,218.419,591.078,218.419C622.317,218.419,649.086,191.3,660.395,152.738C665.102,153.799,669.634,154.973,674.186,156.137C674.361,188.55,687.638,215.947,711.883,226.741C736.015,237.504,765.112,229.182,789.265,207.852C789.553,208.088,789.903,208.315,790.192,208.562C785.629,261.997,763.794,312.496,727.971,352.408C727.971,352.408,727.971,352.408,727.971,352.408" class="icon-face-extras"/><glyph unicode="&#x0048;" d="M512.213,259.431C454.189,258.742,397.745,278.33,352.607,314.802C352.607,314.802,388.351,350.536,388.351,350.536C462.105,296.551,562.321,296.551,636.075,350.536C636.075,350.536,671.819,314.802,671.819,314.802C626.681,278.33,570.237,258.742,512.213,259.431C512.213,259.431,512.213,259.431,512.213,259.431M327.472,492.254C327.472,455.235,367.538,432.105,399.597,450.609C414.477,459.204,423.639,475.076,423.639,492.254C423.639,529.273,383.573,552.404,351.514,533.9C336.633,525.305,327.472,509.433,327.472,492.254M600.787,492.254C600.787,455.235,640.853,432.105,672.912,450.609C687.793,459.204,696.954,475.076,696.954,492.254C696.954,529.273,656.888,552.404,624.829,533.9C609.948,525.305,600.787,509.433,600.787,492.254M512.213,1024.5C269.944,1020.987,75.304,823.745,75,581.456C75,428.289,179.214,270.667,224.017,210.011C270.542,147.017,391.772,0.5,512.213,0.5C632.654,0.5,753.884,147.017,800.408,210.011C845.212,270.667,949.426,428.289,949.426,581.456C949.122,823.745,754.481,1020.987,512.213,1024.5C512.213,1024.5,512.213,1024.5,512.213,1024.5M512.213,96.332C404.405,96.332,170.832,389.599,170.832,581.456C170.853,770.945,322.755,925.438,512.213,928.668C701.671,925.438,853.573,770.935,853.593,581.456C853.593,389.599,620.021,96.332,512.213,96.332C512.213,96.332,512.213,96.332,512.213,96.332M896.878,563.114C896.878,563.114,896.878,674.464,896.878,674.464C896.878,674.464,795.651,836.429,795.651,836.429C795.651,836.429,669.41,928.668,669.41,928.668C669.41,928.668,571.168,978.148,571.168,978.148C571.168,978.148,467.551,978.148,467.551,978.148C467.551,978.148,360.371,947.779,360.371,947.779C360.371,947.779,249.021,887.043,249.021,887.043C249.021,887.043,157.916,775.692,157.916,775.692C157.916,775.692,117.425,593.482,117.425,593.482C117.425,593.482,144.22,512.5,144.22,512.5C144.22,512.5,168.352,512.5,168.352,512.5C168.292,512.895,168.221,513.29,168.17,513.684C352.84,535.701,505.4,652.66,566.876,810.15C595.291,685.913,711.662,587.945,859.586,563.6C859.586,563.6,859.566,563.114,859.566,563.114C859.566,563.114,896.878,563.114,896.878,563.114" class="icon-facial-features"/><glyph unicode="&#x0049;" d="M495.517,734.187C482.301,720.981,471.453,705.604,463.439,688.727C526.996,557.662,424.835,406.938,279.551,417.435C134.267,427.921,54.815,591.757,136.542,712.336C183.563,781.694,270.595,811.88,350.461,786.513C362.332,805.097,376.159,822.356,391.691,838.013C400.76,847.061,410.388,855.552,420.502,863.421C222.105,961.539,-8.101,808.096,6.128,587.217C14.525,456.835,109.789,348.5,238.031,323.505C238.031,323.505,238.031,232.492,238.031,232.492C238.031,232.492,103.429,232.492,103.429,232.492C103.429,232.492,103.429,134.602,103.429,134.602C103.429,134.602,238.031,134.602,238.031,134.602C238.031,134.602,238.031,0,238.031,0C238.031,0,335.931,0,335.931,0C335.931,0,335.931,134.602,335.931,134.602C335.931,134.602,470.533,134.602,470.533,134.602C470.533,134.602,470.533,232.492,470.533,232.492C470.533,232.492,335.931,232.492,335.931,232.492C335.931,232.492,335.931,321.354,335.931,321.354C542.901,352.378,648.33,587.165,534.007,762.46C519.85,754.983,506.882,745.448,495.517,734.187C495.517,734.187,495.517,734.187,495.517,734.187M920.945,1024C920.945,1024,920.945,1023.876,920.945,1023.876C920.945,1023.876,796.923,1023.876,796.923,1023.876C796.923,1023.876,796.923,925.986,796.923,925.986C796.923,925.986,851.721,925.986,851.721,925.986C851.721,925.986,778.05,852.315,778.05,852.315C597.223,979.915,346.066,863.918,325.962,643.515C320.099,579.109,336.107,514.601,371.422,460.423C402.084,477.135,426.727,503.039,441.887,534.497C378.061,665.779,480.295,816.917,625.899,806.544C771.504,796.172,851.287,632.077,769.498,511.157C722.363,441.478,634.958,411.178,554.803,436.742C535.848,407.424,512.115,381.478,484.597,359.979C682.694,261.489,913.107,414.374,899.363,635.169C896.044,688.354,878.019,739.564,847.274,783.09C847.274,783.09,920.945,856.761,920.945,856.761C920.945,856.761,920.945,801.963,920.945,801.963C920.945,801.963,1018.836,801.963,1018.836,801.963C1018.836,801.963,1018.846,1024,1018.846,1024C1018.846,1024,920.945,1024,920.945,1024" class="icon-gender"/><glyph unicode="&#x004a;" d="M786.298,750.015C662.249,749.819,559.18,654.31,549.57,530.642C549.56,530.642,474.589,530.642,474.589,530.642C460.499,713.029,254.247,811.772,103.336,708.373C-47.575,604.975,-29.962,376.991,135.039,297.992C281.006,228.109,452.599,321.393,473.332,481.883C473.332,481.883,550.817,481.883,550.817,481.883C574.351,300.536,785.382,212.67,930.669,323.721C1075.957,434.783,1046.541,661.469,877.719,731.764C848.745,743.825,817.682,750.025,786.298,750.015C786.298,750.015,786.298,750.015,786.298,750.015M237.85,323.443C92.429,323.443,1.544,480.874,74.25,606.808C146.966,732.753,328.745,732.753,401.451,606.808C418.033,578.093,426.767,545.515,426.767,512.36C426.767,408.024,342.186,323.443,237.85,323.443C237.85,323.443,237.85,323.443,237.85,323.443M786.298,323.443C640.877,323.443,549.993,480.874,622.698,606.808C695.414,732.753,877.183,732.753,949.899,606.808C966.481,578.093,975.205,545.515,975.205,512.36C975.205,408.024,890.634,323.443,786.298,323.443C786.298,323.443,786.298,323.443,786.298,323.443" class="icon-glasses"/><glyph unicode="&#x004b;" d="M545.986,1.36C551.37,1.742,556.775,2.079,562.102,2.641C565.598,3.012,569.048,3.563,572.521,4.012C577.218,4.608,581.938,5.136,586.602,5.878C590.502,6.496,594.335,7.316,598.201,8.024C602.37,8.8,606.573,9.474,610.709,10.351C614.879,11.239,618.981,12.329,623.117,13.318C626.87,14.228,630.658,15.037,634.378,16.037C638.727,17.195,643.009,18.555,647.313,19.836C650.741,20.859,654.214,21.792,657.608,22.882C662.159,24.354,666.621,26.017,671.116,27.613C674.184,28.714,677.286,29.715,680.332,30.872C685.052,32.659,689.682,34.648,694.335,36.581C697.066,37.717,699.842,38.773,702.551,39.964C707.451,42.111,712.249,44.437,717.059,46.741C719.431,47.887,721.847,48.933,724.207,50.113C729.22,52.619,734.142,55.305,739.065,57.98C741.132,59.104,743.245,60.16,745.302,61.306C750.483,64.228,755.563,67.319,760.62,70.421C762.328,71.455,764.07,72.432,765.756,73.489C771.038,76.815,776.197,80.299,781.344,83.817C782.76,84.784,784.21,85.683,785.603,86.66C790.93,90.38,796.134,94.258,801.304,98.191C802.461,99.057,803.641,99.877,804.776,100.765C810.16,104.923,815.419,109.227,820.623,113.61C821.488,114.341,822.387,115.027,823.253,115.757C828.669,120.376,833.952,125.13,839.166,129.974C839.773,130.536,840.403,131.064,840.998,131.626C846.37,136.661,851.63,141.83,856.766,147.113C857.182,147.528,857.609,147.933,858.013,148.349C863.34,153.833,868.533,159.452,873.612,165.195C873.815,165.42,874.028,165.645,874.231,165.87C879.445,171.77,884.525,177.805,889.47,183.964C889.47,183.964,889.65,184.177,889.65,184.177C962.768,275.648,1003.024,389.033,1003.946,506.128C1003.968,508.095,1004.092,510.028,1004.092,512.006C1004.092,758.231,836.166,964.368,613.238,1013.065C609.338,1013.908,605.393,1014.616,601.471,1015.369C601.471,1015.369,601.471,1015.369,601.471,1015.369C572.004,1021.067,542.053,1023.966,512.046,1024C240.725,1024,20,794.318,20,512.006C20.034,492.417,21.135,472.851,23.315,453.385C29.261,399.069,43.668,346.024,66.011,296.169C66.011,296.169,66.235,295.63,66.235,295.63C69.09,289.291,72.091,283.043,75.181,276.85C75.608,276.007,76.013,275.153,76.44,274.31C79.362,268.523,82.419,262.825,85.543,257.183C86.206,255.98,86.858,254.767,87.532,253.575C90.567,248.203,93.691,242.899,96.917,237.662C97.782,236.245,98.636,234.841,99.513,233.447C102.671,228.401,105.907,223.422,109.234,218.5C110.257,216.983,111.279,215.477,112.325,213.982C115.618,209.206,118.989,204.485,122.439,199.821C123.586,198.27,124.754,196.742,125.923,195.214C129.385,190.651,132.902,186.155,136.488,181.716C137.735,180.188,139.016,178.682,140.275,177.176C143.905,172.804,147.58,168.477,151.345,164.24C152.637,162.79,153.975,161.386,155.29,159.947C159.133,155.721,163.01,151.518,167,147.427C168.203,146.202,169.45,145.011,170.664,143.797C174.856,139.583,179.082,135.391,183.408,131.334C184.094,130.693,184.813,130.086,185.499,129.446C200.199,115.847,215.697,103.147,231.925,91.414C233.195,90.504,234.42,89.526,235.69,88.627C239.545,85.896,243.49,83.311,247.423,80.693C249.941,79.007,252.436,77.276,254.987,75.635C258.594,73.332,262.292,71.14,265.967,68.915C268.934,67.128,271.89,65.296,274.901,63.565C278.43,61.542,282.015,59.62,285.589,57.676C288.848,55.912,292.096,54.136,295.401,52.439C298.896,50.652,302.436,48.944,305.987,47.236C309.46,45.561,312.944,43.887,316.473,42.302C319.957,40.717,323.474,39.211,327.003,37.717C330.667,36.154,334.353,34.637,338.062,33.165C341.557,31.794,345.064,30.456,348.593,29.164C352.436,27.748,356.302,26.388,360.191,25.073C363.675,23.893,367.17,22.747,370.688,21.645C374.7,20.387,378.746,19.207,382.803,18.049C386.275,17.06,389.759,16.082,393.266,15.172C397.458,14.093,401.683,13.104,405.909,12.138C409.359,11.34,412.81,10.531,416.294,9.811C420.677,8.912,425.105,8.125,429.533,7.35C432.915,6.743,436.298,6.114,439.715,5.586C444.424,4.855,449.166,4.282,453.92,3.697C457.112,3.304,460.27,2.855,463.473,2.517C468.811,1.978,474.183,1.607,479.567,1.247C482.253,1.056,484.916,0.787,487.613,0.652C495.705,0.236,503.853,0,512.046,0C520.486,0,528.893,0.225,537.232,0.674C540.165,0.82,543.064,1.146,545.986,1.36C545.986,1.36,545.986,1.36,545.986,1.36M130.07,456.465C335.106,480.909,504.482,610.759,572.723,785.608C604.281,647.677,733.479,538.899,897.697,511.882C897.64,287.932,725.005,106.395,512.046,106.395C316.979,106.395,155.829,258.745,130.07,456.465C130.07,456.465,130.07,456.465,130.07,456.465" class="icon-hairstyle"/><glyph unicode="&#x004c;" d="M1024.5,525.361C1024.5,525.361,512.495,945.464,512.495,945.464C512.495,945.464,0.5,525.361,0.5,525.361C0.5,525.361,144.907,525.361,144.907,525.361C144.907,525.361,144.907,79,144.907,79C144.907,79,880.093,79,880.093,79C880.093,79,880.093,525.361,880.093,525.361C880.093,525.361,1024.5,525.361,1024.5,525.361M670.041,262.794C670.041,262.794,354.959,262.794,354.959,262.794C354.959,262.794,354.959,472.845,354.959,472.845C354.959,472.845,670.041,472.845,670.041,472.845C670.041,472.845,670.041,262.794,670.041,262.794" class="icon-home"/><glyph unicode="&#x004d;" d="M518.939,903.755C519.171,903.755,519.413,903.755,519.656,903.744C528.046,903.633,535.807,899.301,540.306,892.223C550.339,877.239,559.666,861.76,568.541,846.061C581.043,823.955,593.347,801.718,604.847,779.083C618.033,753.119,630.425,726.736,642.806,700.364C647.547,690.243,651.383,679.692,655.43,669.251C657.039,665.117,660.832,665.911,663.61,665.613C676.333,664.257,689.144,663.783,701.856,662.372C719.695,660.387,737.489,657.929,755.273,655.503C771.579,653.287,787.918,651.181,804.136,648.381C818.369,645.922,832.525,642.923,846.56,639.517C862.778,635.581,878.853,630.994,894.938,626.562C903.031,624.721,910.186,620.035,915.103,613.354C921.818,603.586,920.936,594.148,913.516,581.403C910.087,576.023,906.129,571.007,901.686,566.431C887.915,551.118,874.057,535.903,860.077,520.788C850.805,510.7,841.544,500.612,832.018,490.766C815.073,473.258,798.248,455.607,780.741,438.673C769.495,427.791,757.125,418.067,745.229,407.858C742.759,406.171,741.679,403.062,742.55,400.206C747.93,376.293,753.156,352.335,758.018,328.312C761.965,308.886,765.581,289.382,768.867,269.824C771.028,256.957,772.439,243.959,774.004,231.004C775.768,216.396,777.488,201.788,778.91,187.147C779.263,181.844,779.296,176.518,778.977,171.204C779.197,164.6,778.811,157.985,777.841,151.447C775.68,137.986,763.751,128.295,750.135,128.934C749.209,128.934,748.272,128.967,747.313,129.033C738.713,129.761,730.323,132.131,722.627,136.034C697.523,148.107,672.298,159.937,647.26,172.13C619.973,185.416,592.697,198.69,565.718,212.57C550.691,220.299,536.304,229.284,521.53,237.509C520.714,237.906,519.821,238.104,518.906,238.082C518.035,238.104,517.164,237.917,516.381,237.531C505.29,231.379,494.331,224.996,483.35,218.634C468.995,210.321,454.773,201.777,440.308,193.673C411.908,177.764,383.551,161.767,354.842,146.431C339.66,138.316,324.005,130.952,308.129,124.315C303.101,122.253,297.721,121.206,292.296,121.239C287.104,121.283,281.955,122.077,276.994,123.609C264.447,127.104,255.759,138.526,255.748,151.558C255.616,153.873,255.605,156.21,255.715,158.525C255.484,158.548,258.141,186.254,259.618,200.101C260.699,210.189,261.514,220.31,262.727,230.387C264.138,242.04,265.836,253.661,267.457,265.281C268.824,275.138,270.114,285.005,271.68,294.818C273.841,308.312,275.88,321.84,278.581,335.224C282.639,355.268,286.277,375.477,292.01,395.058C294.656,404.087,289.684,407.042,285.053,411.231C273.852,421.374,262.308,431.143,251.14,441.319C233.588,457.316,216.047,473.314,198.848,489.675C181.913,505.782,164.924,521.879,148.882,538.858C137.571,550.831,127.703,564.193,117.395,577.093C114.341,580.907,111.662,585.009,109.39,589.33C100.118,601.789,105.609,619.672,120.272,624.776C131.143,629.451,142.455,633.012,154.042,635.404C168.849,639.076,183.843,641.997,198.815,644.919C212.861,647.664,226.973,650.068,241.074,652.46C253.113,654.511,265.164,656.506,277.247,658.226C286.464,659.538,295.747,660.387,305.008,661.457C316.199,662.758,327.389,664.125,338.602,665.359C343.001,665.845,347.433,666.175,351.854,666.418C359.428,666.826,367.002,667.289,374.577,667.366C377.73,667.101,380.651,669.042,381.622,672.052C393.837,700.044,405.557,728.291,418.699,755.842C432.028,783.769,446.284,811.287,461.157,838.431C470.638,855.289,480.958,871.65,492.082,887.471C497.595,897.206,507.76,903.38,518.939,903.755M518.939,1008.493C518.939,1008.493,518.928,1008.493,518.928,1008.493C473.262,1008.129,430.783,984.966,405.745,946.764C392.636,928.054,380.475,908.694,369.307,888.761C352.493,858.089,337.731,829.369,324.17,800.957C318.801,789.689,313.707,778.466,308.801,767.363C308.801,767.363,304.303,766.834,304.303,766.834C304.303,766.834,292.947,765.5,292.947,765.5C290.213,765.192,287.479,764.894,284.744,764.596C278.041,763.88,270.456,763.053,262.452,761.917C248.659,759.944,235.021,757.683,223.511,755.721C208.969,753.24,194.008,750.705,178.749,747.717C162.509,744.553,146.071,741.344,128.806,737.056C128.806,737.056,126.501,736.482,126.501,736.482C108.729,732.568,91.42,726.758,74.882,719.162C42.777,704.344,18.136,677.035,6.681,643.585C-4.19,609.396,-0.618,572.253,16.581,540.776C21.973,530.501,28.334,520.754,35.589,511.692C37.893,508.814,40.164,505.904,42.435,503.004C51.079,491.979,60.869,479.499,72.754,466.919C90.13,448.529,107.77,431.76,124.826,415.542C124.826,415.542,126.667,413.789,126.667,413.789C144.34,396.976,162.763,380.152,177.977,366.282C177.977,366.282,177.867,365.709,177.867,365.709C177.867,365.709,175.927,355.985,175.927,355.985C173.171,342.369,171.142,329.524,169.168,317.11C169.168,317.11,168.253,311.333,168.253,311.333C166.908,302.888,165.729,294.41,164.571,285.931C164.571,285.931,163.711,279.691,163.711,279.691C163.711,279.691,162.62,271.896,162.62,271.896C161.263,262.249,159.918,252.614,158.75,242.945C157.912,236.054,157.239,229.119,156.567,222.195C156.214,218.546,155.872,214.886,155.475,211.247C153.237,193.751,151.892,176.155,151.451,158.525C151.451,158.525,150.977,158.525,150.977,158.525C150.977,158.525,150.988,159.716,150.988,159.716C150.734,153.3,150.944,146.872,151.594,140.488C155.883,85.429,193.798,38.782,246.807,23.314C261.559,18.838,276.883,16.544,292.296,16.5C311.59,16.456,330.708,20.249,348.513,27.68C367.818,35.75,386.561,44.614,404.201,54.052C430.772,68.241,457.011,82.96,482.391,97.193C482.391,97.193,491.509,102.309,491.509,102.309C500.935,107.59,510.273,113.036,519.601,118.504C546.932,104.481,574.494,91.063,601.164,78.075C616.687,70.512,632.045,63.203,647.392,55.893C657.348,51.152,667.293,46.4,677.226,41.638C696.796,31.991,718.03,26.202,739.782,24.56C743.222,24.317,746.706,24.185,750.135,24.185C813.044,23.854,867.486,67.91,880.264,129.507C882.668,141.359,883.803,153.432,883.649,165.526C883.66,166.397,883.649,167.257,883.671,168.117C883.671,168.117,883.737,169.97,883.737,169.97C884.156,179.065,883.957,188.183,883.164,197.257C881.719,212.118,880.044,226.517,877.982,243.573C877.982,243.573,877.188,250.221,877.188,250.221C875.865,261.412,874.355,274.09,872.161,287.177C868.732,307.596,864.862,328.433,860.672,349.116C859.504,354.871,858.302,360.736,857.034,366.756C871.676,381.056,885.567,395.443,899.04,409.39C899.04,409.39,907.275,417.913,907.275,417.913C917.352,428.32,926.856,438.673,936.051,448.673C936.051,448.673,937.187,449.896,937.187,449.896C951.387,465.342,965.51,480.844,979.578,496.411C979.578,496.411,980.206,497.117,980.206,497.117C989.258,506.753,997.24,517.337,1004.032,528.693C1032.234,572.815,1031.219,629.561,1001.441,672.647C982.599,699.758,954.694,719.217,922.755,727.541C922.755,727.541,913.791,730.022,913.791,730.022C900.164,733.803,886.074,737.706,871.279,741.3C854.487,745.379,837.895,748.841,821.963,751.598C806.264,754.31,791.17,756.349,776.573,758.312C776.573,758.312,769.407,759.282,769.407,759.282C769.407,759.282,766.452,759.69,766.452,759.69C754.016,761.388,741.26,763.119,728.283,764.717C718.912,784.585,708.78,805.742,698.218,826.524C685.131,852.312,671.405,876.92,659.718,897.603C648.682,917.128,638.087,934.427,627.36,950.468C603.964,986.024,564.528,1007.721,521.971,1008.46C520.902,1008.482,519.92,1008.493,518.939,1008.493C518.939,1008.493,518.939,1008.493,518.939,1008.493" class="icon-info"/><glyph unicode="&#x004e;" d="M512.051,917.615C725.047,917.615,897.717,736.02,897.717,512C897.717,287.991,725.047,106.385,512.051,106.385C299.056,106.385,126.385,287.991,126.385,512C126.385,736.02,299.056,917.615,512.051,917.615M512.051,1024C240.727,1024,20,794.327,20,512C20,229.685,240.727,0,512.051,0C783.375,0,1004.103,229.685,1004.103,512C1004.103,794.327,783.375,1024,512.051,1024C512.051,1024,512.051,1024,512.051,1024M90.601,361.93C90.601,232.157,231.085,151.048,343.471,215.94C395.63,246.048,427.761,301.702,427.761,361.93C427.761,491.703,287.278,572.812,174.891,507.932C122.733,477.812,90.601,422.158,90.601,361.93M596.341,361.93C596.341,232.157,736.825,151.048,849.211,215.94C901.37,246.048,933.501,301.702,933.501,361.93C933.501,491.703,793.018,572.812,680.631,507.932C628.473,477.812,596.341,422.158,596.341,361.93" class="icon-makeup"/><glyph unicode="&#x004f;" d="M512.051,917.615C725.047,917.615,897.717,736.02,897.717,512C897.717,287.991,725.047,106.385,512.051,106.385C299.056,106.385,126.385,287.991,126.385,512C126.385,736.02,299.056,917.615,512.051,917.615M512.051,1024C240.727,1024,20,794.327,20,512C20,229.685,240.727,0,512.051,0C783.375,0,1004.103,229.685,1004.103,512C1004.103,794.327,783.375,1024,512.051,1024C512.051,1024,512.051,1024,512.051,1024M616.099,354.76C616.099,303.579,671.506,271.582,715.831,297.184C736.409,309.052,749.086,331.012,749.086,354.76C749.086,405.952,693.668,437.948,649.343,412.347C628.765,400.467,616.099,378.518,616.099,354.76" class="icon-mole"/><glyph unicode="&#x0050;" d="M512.051,917.615C725.047,917.615,897.717,736.02,897.717,512C897.717,287.991,725.047,106.385,512.051,106.385C299.056,106.385,126.385,287.991,126.385,512C126.385,736.02,299.056,917.615,512.051,917.615M512.051,1024C240.727,1024,20,794.327,20,512C20,229.685,240.727,0,512.051,0C783.375,0,1004.103,229.685,1004.103,512C1004.103,794.327,783.375,1024,512.051,1024C512.051,1024,512.051,1024,512.051,1024M706.076,459.572C656.873,513.866,587.081,544.929,513.805,545.154C513.805,545.154,513.805,545.244,513.805,545.244C513.22,545.244,512.636,545.21,512.051,545.199C511.467,545.21,510.883,545.244,510.298,545.244C510.298,545.244,510.298,545.154,510.298,545.154C437.022,544.929,367.23,513.866,318.027,459.572C285.828,423.698,266.194,378.316,262.103,330.293C262.362,330.068,262.677,329.866,262.935,329.653C284.637,348.826,310.789,356.299,332.48,346.634C354.272,336.924,366.196,312.3,366.353,283.169C370.455,282.136,374.524,281.068,378.761,280.124C388.921,314.773,412.971,339.149,441.045,339.149C472.772,339.149,499.307,307.996,506.522,266.087C507.781,266.064,509.039,266.053,510.298,266.031C510.298,266.031,510.298,265.974,510.298,265.974C510.894,265.974,511.467,265.997,512.051,265.997C512.636,265.997,513.209,265.974,513.805,265.974C513.805,265.974,513.805,266.031,513.805,266.031C515.063,266.053,516.322,266.064,517.581,266.087C524.796,307.996,551.331,339.149,583.057,339.149C611.131,339.149,635.182,314.773,645.342,280.124C649.579,281.068,653.647,282.136,657.749,283.169C657.907,312.3,669.831,336.924,691.623,346.634C713.313,356.299,739.455,348.826,761.168,329.653C761.426,329.866,761.741,330.068,761.999,330.293C757.908,378.316,738.275,423.698,706.076,459.572C706.076,459.572,706.076,459.572,706.076,459.572" class="icon-moustache"/><glyph unicode="&#x0051;" d="M652.689,888.01C599.773,888.01,522.252,789.421,512,776.075C501.748,789.421,424.227,888.01,371.311,888.01C194.888,888.01,39.162,725.533,0,561.665C0,561.665,1024,561.665,1024,561.665C984.838,725.533,829.112,888.01,652.689,888.01C652.689,888.01,652.689,888.01,652.689,888.01M513.199,448.159C513.199,448.159,17.795,448.159,17.795,448.159C88.913,266.317,280.635,136,506.112,136C508.091,136,510.033,136.144,512,136.216C513.967,136.144,515.909,136,517.9,136C743.377,136,935.099,266.317,1006.205,448.159C1006.205,448.159,513.199,448.159,513.199,448.159" class="icon-mouth"/><glyph unicode="&#x0052;" d="M725.841,130.51C645.308,135.048,568.487,150.698,514.289,177.79C449.199,210.342,416.647,275.432,432.93,356.791C449.199,438.164,449.199,389.343,514.289,503.254C579.379,617.164,677.02,1024,677.02,1024C677.02,1024,543.031,1024,543.031,1024C503.053,862.341,437.413,631.109,401.258,567.848C389.94,546.285,376.312,526.014,360.593,507.407C329.581,471.321,317.685,444.435,305.267,382.329C277.721,244.627,335.508,121.626,456.075,61.349C543.801,17.479,650.066,3.699,725.841,0C725.841,0,725.841,130.51,725.841,130.51" class="icon-nose"/><glyph unicode="&#x0053;" d="M946.235,1024.5C946.235,1024.5,557.378,1024.5,557.378,1024.5C557.378,1024.5,557.378,557.863,557.378,557.863C557.378,557.863,1024,557.863,1024,557.863C1024,557.863,1024,1024.5,1024,1024.5C1024,1024.5,946.235,1024.5,946.235,1024.5M946.235,635.643C946.235,635.643,635.143,635.643,635.143,635.643C635.143,635.643,635.143,946.735,635.143,946.735C635.143,946.735,946.235,946.735,946.235,946.735C946.235,946.735,946.235,635.643,946.235,635.643M745.326,836.552C745.326,836.552,745.326,745.811,745.326,745.811C745.326,745.811,836.052,745.811,836.052,745.811C836.052,745.811,836.052,836.552,836.052,836.552C836.052,836.552,745.326,836.552,745.326,836.552M388.871,1024.5C388.871,1024.5,0,1024.5,0,1024.5C0,1024.5,0,557.863,0,557.863C0,557.863,466.637,557.863,466.637,557.863C466.637,557.863,466.637,1024.5,466.637,1024.5C466.637,1024.5,388.871,1024.5,388.871,1024.5M388.871,635.643C388.871,635.643,77.78,635.643,77.78,635.643C77.78,635.643,77.78,946.735,77.78,946.735C77.78,946.735,388.871,946.735,388.871,946.735C388.871,946.735,388.871,635.643,388.871,635.643M187.963,836.552C187.963,836.552,187.963,745.811,187.963,745.811C187.963,745.811,278.689,745.811,278.689,745.811C278.689,745.811,278.689,836.552,278.689,836.552C278.689,836.552,187.963,836.552,187.963,836.552M388.871,467.137C388.871,467.137,0,467.137,0,467.137C0,467.137,0,0.5,0,0.5C0,0.5,466.637,0.5,466.637,0.5C466.637,0.5,466.637,467.137,466.637,467.137C466.637,467.137,388.871,467.137,388.871,467.137M388.871,78.265C388.871,78.265,77.78,78.265,77.78,78.265C77.78,78.265,77.78,389.357,77.78,389.357C77.78,389.357,388.871,389.357,388.871,389.357C388.871,389.357,388.871,78.265,388.871,78.265M187.963,279.189C187.963,279.189,187.963,188.448,187.963,188.448C187.963,188.448,278.689,188.448,278.689,188.448C278.689,188.448,278.689,279.189,278.689,279.189C278.689,279.189,187.963,279.189,187.963,279.189M946.235,467.137C946.235,467.137,946.235,389.357,946.235,389.357C946.235,389.357,790.689,389.357,790.689,389.357C790.689,389.357,790.689,467.137,790.689,467.137C790.689,467.137,635.143,467.137,635.143,467.137C635.143,467.137,557.363,467.137,557.363,467.137C557.363,467.137,557.363,389.357,557.363,389.357C557.363,389.357,557.363,311.591,557.363,311.591C557.363,311.591,557.363,0.5,557.363,0.5C557.363,0.5,635.143,0.5,635.143,0.5C635.143,0.5,635.143,78.265,635.143,78.265C635.143,78.265,790.689,78.265,790.689,78.265C790.689,78.265,790.689,156.046,790.689,156.046C790.689,156.046,635.143,156.046,635.143,156.046C635.143,156.046,635.143,311.591,635.143,311.591C635.143,311.591,868.454,311.591,868.454,311.591C868.454,311.591,868.454,233.811,868.454,233.811C868.454,233.811,1024,233.811,1024,233.811C1024,233.811,1024,311.591,1024,311.591C1024,311.591,1024,389.357,1024,389.357C1024,389.357,1024,467.137,1024,467.137C1024,467.137,946.235,467.137,946.235,467.137C946.235,467.137,946.235,467.137,946.235,467.137M790.689,78.265C790.689,78.265,790.689,0.5,790.689,0.5C790.689,0.5,868.469,0.5,868.469,0.5C868.469,0.5,868.469,78.265,868.469,78.265C868.469,78.265,790.689,78.265,790.689,78.265M946.235,78.265C946.235,78.265,946.235,0.5,946.235,0.5C946.235,0.5,1024,0.5,1024,0.5C1024,0.5,1024,78.265,1024,78.265C1024,78.265,946.235,78.265,946.235,78.265" class="icon-qr-code"/><glyph unicode="&#x0054;" d="M512.051,917.615C725.047,917.615,897.717,736.02,897.717,512C897.717,287.991,725.047,106.385,512.051,106.385C299.056,106.385,126.385,287.991,126.385,512C126.385,736.02,299.056,917.615,512.051,917.615M512.051,1024C240.727,1024,20,794.327,20,512C20,229.685,240.727,0,512.051,0C783.375,0,1004.103,229.685,1004.103,512C1004.103,794.327,783.375,1024,512.051,1024C512.051,1024,512.051,1024,512.051,1024M302.967,219.795C302.967,219.795,359.127,219.795,359.127,219.795C359.543,326.315,341.033,402.209,303.754,445.849C288.132,465.483,266.048,478.936,241.447,483.813C241.447,483.813,192.952,492.838,192.952,492.838C192.952,492.838,192.952,435.678,192.952,435.678C192.952,435.678,231.826,428.452,231.826,428.452C231.826,428.452,304.046,422.787,302.967,219.795C302.967,219.795,302.967,219.795,302.967,219.795M721.136,219.795C721.136,219.795,664.976,219.795,664.976,219.795C664.56,326.315,683.07,402.209,720.349,445.849C735.971,465.483,758.055,478.936,782.656,483.813C782.656,483.813,831.151,492.838,831.151,492.838C831.151,492.838,831.151,435.678,831.151,435.678C831.151,435.678,792.276,428.452,792.276,428.452C792.276,428.452,720.057,422.787,721.136,219.795C721.136,219.795,721.136,219.795,721.136,219.795" class="icon-wrinkles"/></font>
</defs>
</svg>
