<svg id="Capa_2" data-name="Capa 2" xmlns="http://www.w3.org/2000/svg" width="128" height="128" viewBox="0 0 128 128">
  <defs>
    <style>
      .cls-1 {
        fill: red;
      }
    </style>
  </defs>
  <g id="About">
    <g id="Question_Mark" data-name="Question Mark">
      <path class="cls-1" d="M58.37815,76.29527V74.75836q0-7.35982,1.15326-9.2827,1.151-1.91882,6.08639-5.5606a13.782,13.782,0,0,0,3.5996-3.53836,7.61418,7.61418,0,0,0,1.01112-4.06529A6.03946,6.03946,0,0,0,68.32761,47.599a6.63438,6.63438,0,0,0-4.61072-1.71833q-7.15876,0-8.04855,10.11124L44.58642,54.41455q1.25322-9.14,6.69422-13.83218a19.63859,19.63859,0,0,1,13.28559-4.69161A20.00622,20.00622,0,0,1,77.994,40.50148a14.68554,14.68554,0,0,1,5.41963,11.68859q0,8.77772-9.01923,14.68152-3.92432,2.58963-4.7517,4.0445-.83028,1.456-.8297,5.37918Z"/>
      <circle class="cls-1" cx="64.24267" cy="86.00103" r="6"/>
    </g>
    <path class="cls-1" d="M64,27.90924c18.95211,0,34.31581,16.15837,34.31581,36.09076S82.95211,100.09076,64,100.09076,29.68419,83.93239,29.68419,64,45.04789,27.90924,64,27.90924m0-9.46643C39.85841,18.44281,20.21776,38.87968,20.21776,64S39.85841,109.55719,64,109.55719,107.78224,89.12032,107.78224,64,88.14159,18.44281,64,18.44281Z"/>
  </g>
</svg>
