<svg id="Capa_2" data-name="Capa 2" xmlns="http://www.w3.org/2000/svg" width="128" height="128" viewBox="0 0 128 128">
  <defs>
    <style>
      .cls-1 {
        fill: red;
      }
    </style>
  </defs>
  <path id="Beard" class="cls-1" d="M64,18.44281C39.85841,18.44281,20.21776,38.87964,20.21776,64c0,25.12029,19.64065,45.55719,43.78224,45.55719S107.78224,89.12029,107.78224,64C107.78224,38.87964,88.14159,18.44281,64,18.44281ZM78.126,96.889l-8.25121-7.448L64,96.49073,58.12523,89.441,49.874,96.889C37.97086,91.22472,29.68419,78.63428,29.68419,64c0-19.93243,15.36374-36.09076,34.31581-36.09076,18.95214,0,34.31581,16.15833,34.31581,36.09076C98.31581,78.63428,90.02922,91.22472,78.126,96.889Z"/>
</svg>
