<svg id="Capa_2" data-name="Capa 2" xmlns="http://www.w3.org/2000/svg" width="128" height="128" viewBox="0 0 128 128">
  <defs>
    <style>
      .cls-1 {
        fill: #fff;
      }
    </style>
  </defs>
  <g id="Body">
    <path class="cls-1" d="M78.46254,110.04831V66.95826c0-6.39875-5.414-8.70195-8.35225-9.04414a27.04208,27.04208,0,0,1-12.5466.04622c-2.99444.46786-8.02623,2.82775-8.02623,8.99792v43.09005a4.46432,4.46432,0,0,0-3.42511,2.52954,7.12777,7.12777,0,0,0,.03063,6.54053,4.99435,4.99435,0,0,0,4.57779,2.27185h6.06385l.10169-.01849c2.84964-.50152,4.48419-2.65088,4.48419-5.898a7.511,7.511,0,0,0-1.1833-4.59223V95.35755c0-.09707.04044-2.36661,3.54991-2.36661h.52578c3.31244,0,3.53836,1.98527,3.54991,2.36661v15.52393a7.511,7.511,0,0,0-1.1833,4.59223c0,3.24715,1.63455,5.39651,4.48419,5.898l.10169.01849h6.06385a4.99435,4.99435,0,0,0,4.57779-2.27185,7.12777,7.12777,0,0,0,.03063-6.54053A4.46432,4.46432,0,0,0,78.46254,110.04831Z"/>
    <circle class="cls-1" cx="64" cy="31.45915" r="24.84938"/>
  </g>
</svg>
