<svg id="Capa_2" data-name="Capa 2" xmlns="http://www.w3.org/2000/svg" width="128" height="128" viewBox="0 0 128 128">
  <defs>
    <style>
      .cls-1 {
        fill: #fff;
      }
    </style>
  </defs>
  <g id="Eyes">
    <path class="cls-1" d="M41.97353,46.50167,41.862,46.4964H25.78956l-.11151.00527A17.51733,17.51733,0,0,0,25.678,81.49833l.11159.00527H41.862l.11151-.00527a17.51733,17.51733,0,0,0,0-34.99666ZM13.70959,64A12.79049,12.79049,0,0,1,25.90122,51.22961h2.08927C25.09268,53.95936,23.176,58.65574,23.176,64c0,5.3443,1.91666,10.04068,4.81447,12.77043H25.90122A12.79061,12.79061,0,0,1,13.70959,64Zm28.0407,12.77043H39.661C42.55883,74.04064,44.47549,69.34426,44.47549,64c0-5.34422-1.91666-10.0406-4.81447-12.77035h2.08927a12.78413,12.78413,0,0,1,0,25.54078Z"/>
    <path class="cls-1" d="M102.322,46.50167l-.11159-.00527H86.13805l-.11151.00527a17.51733,17.51733,0,0,0-.00007,34.99666l.11158.00527h16.07246l.11152-.00527a17.51733,17.51733,0,0,0,0-34.99666ZM74.05808,64A12.79049,12.79049,0,0,1,86.24971,51.22961H88.339C85.44117,53.95936,83.52451,58.65574,83.52451,64c0,5.3443,1.91666,10.04068,4.81447,12.77043H86.24971A12.79061,12.79061,0,0,1,74.05808,64Zm28.0407,12.77043h-2.08927C102.90732,74.04064,104.824,69.34426,104.824,64c0-5.34422-1.91666-10.0406-4.81447-12.77035h2.08927a12.78413,12.78413,0,0,1,0,25.54078Z"/>
  </g>
</svg>
