<svg id="Capa_2" data-name="Capa 2" xmlns="http://www.w3.org/2000/svg" width="128" height="128" viewBox="0 0 128 128">
  <defs>
    <style>
      .cls-1 {
        fill: red;
      }
    </style>
  </defs>
  <g id="Face_Extras" data-name="Face Extras">
    <path id="Glasses" class="cls-1" d="M90.62433,27.59a23.08986,23.08986,0,0,0-22.9845,21.29947H60.36017a23.0723,23.0723,0,1,0-.12162,4.73321h7.5229A23.06455,23.06455,0,1,0,90.62433,27.59ZM37.37567,69.00563a18.34121,18.34121,0,1,1,18.3412-18.34121A18.34119,18.34119,0,0,1,37.37567,69.00563Zm53.24866,0a18.34121,18.34121,0,1,1,18.34121-18.34121A18.34118,18.34118,0,0,1,90.62433,69.00563Z"/>
    <circle class="cls-1" cx="98.38111" cy="82.66442" r="5.91652"/>
    <path class="cls-1" d="M84.96106,79.49572a28.15346,28.15346,0,0,0-20.77187-9.246v-.01c-.06349,0-.12575.00456-.18915.005-.06339-.00044-.12574-.005-.18923-.005v.01a28.15346,28.15346,0,0,0-20.77187,9.246,23.96154,23.96154,0,0,0-6.04143,13.96641c.02788.02359.062.04569.09023.06919,2.345-2.07137,5.1699-2.87906,7.51336-1.83478,2.354,1.04883,3.64247,3.70876,3.65913,6.85579.44283.11224.88206.22667,1.33988.32971,1.09794-3.74393,3.69666-6.377,6.72961-6.377,3.42719,0,6.294,3.36511,7.07291,7.8934q.20466.00211.40818.00605V100.41c.06366,0,.1261-.002.18923-.00281.06314.00079.12549.00281.18915.00281v-.00553q.20361-.00394.40818-.00605c.77894-4.52829,3.64572-7.8934,7.07291-7.8934,3.03295,0,5.63167,2.63309,6.72961,6.377.45782-.103.89705-.21747,1.33988-.32971.01666-3.147,1.30514-5.807,3.65913-6.85579,2.34346-1.04428,5.16832-.23659,7.51336,1.83478.02824-.0235.06235-.0456.09023-.06919A23.96154,23.96154,0,0,0,84.96106,79.49572Z"/>
  </g>
</svg>
