<svg id="Capa_2" data-name="Capa 2" xmlns="http://www.w3.org/2000/svg" width="128" height="128" viewBox="0 0 128 128">
  <defs>
    <style>
      .cls-1 {
        fill: red;
      }
    </style>
  </defs>
  <g id="Facial_Features" data-name="Facial Features">
    <path class="cls-1" d="M64,89a24.62154,24.62154,0,0,1-15.7666-5.46973L51.76367,80a20.716,20.716,0,0,0,24.47266,0l3.53027,3.53027A24.62154,24.62154,0,0,1,64,89Z"/>
    <g>
      <circle class="cls-1" cx="50.5" cy="66" r="4.75"/>
      <circle class="cls-1" cx="77.5" cy="66" r="4.75"/>
    </g>
    <path id="Face" class="cls-1" d="M64,13.42128A43.82574,43.82574,0,0,0,20.80941,57.18849c0,15.13089,10.2944,30.70126,14.72045,36.69325,4.5965,6.223,16.57217,20.697,28.47014,20.697s23.87364-14.474,28.47014-20.697c4.42605-5.992,14.72045-21.56236,14.72045-36.69325A43.82574,43.82574,0,0,0,64,13.42128Zm0,91.691c-10.64973,0-33.72416-28.97173-33.72416-47.9238A34.30955,34.30955,0,0,1,64,22.88763,34.30955,34.30955,0,0,1,97.72416,57.18849C97.72416,76.14056,74.64973,105.11229,64,105.11229Z"/>
    <path class="cls-1" d="M102,59V48L92,32,79.52942,22.88763,69.82355,18H59.58826L49,21,38,27,29,38,25,56l2.647,8h2.38355c-.00525-.03937-.01282-.078-.01795-.11743C48.2558,61.70819,63.32721,50.1543,69.39954,34.59619c2.80755,12.273,14.30389,21.95111,28.91607,24.35535L98.31445,59Z"/>
  </g>
</svg>
