<svg id="Capa_2" data-name="Capa 2" xmlns="http://www.w3.org/2000/svg" width="128" height="128" viewBox="0 0 128 128">
  <defs>
    <style>
      .cls-1 {
        fill: #fff;
      }
    </style>
  </defs>
  <g id="Gender">
    <path class="cls-1" d="M62.388,42.51452a15.80576,15.80576,0,0,0-3.10184,4.39572,18.2981,18.2981,0,1,1-10.92505-9.45545,30.01332,30.01332,0,0,1,3.98672-4.97986A30.34153,30.34153,0,0,1,55.134,30.0171,27.80275,27.80275,0,1,0,37.4892,82.22785v8.80032H24.47286v9.46643H37.4892v13.01634h9.46643V100.4946H59.972V91.02817H46.95563V82.43528a27.78408,27.78408,0,0,0,19.154-42.65513A15.74827,15.74827,0,0,0,62.388,42.51452Z"/>
    <path class="cls-1" d="M103.52714,14.48906l.00007.01235H91.53413v9.46643h5.2993l-7.12409,7.124A27.80194,27.80194,0,0,0,50.38782,68.98769,16.13748,16.13748,0,0,0,57.20207,61.825a18.33683,18.33683,0,1,1,10.91927,9.45257,30.29225,30.29225,0,0,1-6.789,7.42273A27.78928,27.78928,0,0,0,96.40312,37.78564l7.12409-7.124v5.2993h9.46629l.00007-21.47186Z"/>
  </g>
</svg>
