<svg id="Capa_2" data-name="Capa 2" xmlns="http://www.w3.org/2000/svg" width="128" height="128" viewBox="0 0 128 128">
  <defs>
    <style>
      .cls-1 {
        fill: red;
      }
    </style>
  </defs>
  <path id="Hair" class="cls-1" d="M67.02023,109.43665c.47913-.03416.95955-.0637,1.43435-.11389.31106-.03286.61729-.08234.9264-.122.41825-.05359.83851-.10032,1.253-.16618.347-.05511.68836-.12748,1.03272-.19111.371-.06853.74462-.12906,1.11238-.20728.37137-.07894.73646-.17528,1.10437-.264.33388-.08053.6708-.15276,1.0018-.24116.38719-.10349.76752-.22418,1.15052-.33836.30543-.091.61411-.17377.9168-.27149.40459-.13065.80189-.27835,1.20136-.42084.27307-.09736.54962-.18663.82024-.2894.42-.15961.83215-.33591,1.24613-.50845.24311-.10133.49011-.19486.73112-.30052.43558-.1911.8627-.39853,1.291-.60379.21118-.10118.42626-.19493.63563-.29951.44656-.223.88416-.46194,1.32212-.70013.18417-.1001.37224-.19341.55489-.29611.461-.2595.91268-.53445,1.36357-.81049.15138-.09266.30659-.17911.45681-.27358.46945-.29532.92908-.60559,1.3869-.91854.12546-.08572.25452-.166.379-.25307.47357-.33107.937-.67636,1.3973-1.02585.10213-.0775.20757-.15044.309-.22888.47863-.37.94663-.75379,1.40994-1.14329.07714-.06486.15709-.126.23379-.19132.48144-.4103.952-.83389,1.416-1.26484.05373-.04984.10978-.09707.16322-.14719q.71664-.67212,1.40279-1.37795c.0364-.03719.07461-.07258.11086-.11q.71058-.73234,1.38777-1.49856c.01806-.02037.03712-.03987.05518-.06024q.69573-.788,1.35577-1.6097l.0164-.01965a46.46661,46.46661,0,0,0,10.1701-28.64651c.00187-.17485.01271-.34746.01271-.52275,0-21.90932-14.942-40.25154-34.77825-44.58391-.34653-.07569-.69746-.13846-1.04695-.20548h0A42.1553,42.1553,0,0,0,64,18.44281C39.85841,18.44281,20.21776,38.87964,20.21776,64a47.61717,47.61717,0,0,0,.29561,5.21588,46.62549,46.62549,0,0,0,3.79843,13.989l.02051.04731c.25372.56406.52109,1.12011.79605,1.67131.03762.07533.07374.15153.11173.22664.26007.5143.5317,1.02123.80991,1.52369.05929.10689.11758.21458.17759.321q.40442.71708.83461,1.41615c.07663.12517.15319.25026.231.37455q.42122.67341.8648,1.33021.13619.20182.27474.40163.44049.6382.90055,1.26044c.10212.13773.20627.27373.30991.41023q.4614.60808.94034,1.20085c.11065.136.22426.26932.33642.40394.32327.38835.64979.77366.98534,1.15037.1152.12921.23407.25481.35064.38264.34263.376.68764.74968,1.04225,1.11332.107.10971.21812.21516.32624.32371.37317.375.74837.74772,1.13412,1.10884.061.05705.12473.11093.186.16763a44.38625,44.38625,0,0,0,4.13059,3.38409c.11266.08146.22187.16777.33526.24815.34255.243.69392.47292,1.04333.706.22454.14972.446.30406.67327.44959.32139.20591.65008.40063.97689.598.26462.15976.5273.32233.79539.47646.31359.18027.63267.35115.95082.52369.29.15723.57951.31547.87332.46605.311.15947.62624.31114.94143.4631.30962.14921.6196.2977.933.43955.31027.14047.62343.27481.93731.40791.32623.13831.65376.27409.98382.40438q.46617.18407.93753.35657.51286.18851,1.03156.36393.465.15751.93392.30521c.35736.11173.71725.217,1.07829.31937.30941.08783.6191.17493.93118.25582.37259.09649.74837.18431,1.12465.27076.30753.07071.61448.14279.92439.20663.39007.08039.78376.14994,1.17745.21942.30168.05323.6022.11.9059.15679.419.06457.84183.11571,1.26455.16771.2834.03488.565.07561.85007.10479.47436.04861.95313.081,1.43175.11368.23884.01625.47559.04059.71551.05287.7205.03683,1.44512.05734,2.17428.05734q1.12745,0,2.2413-.05915C66.50268,109.48425,66.76008,109.45521,67.02023,109.43665ZM30.01259,68.94143C48.25579,66.767,63.32717,55.21312,69.39947,39.655,72.20708,51.928,83.70341,61.60616,98.31559,64.0104,98.31025,83.938,82.94875,100.09076,64,100.09076,46.64276,100.09076,32.30437,86.53448,30.01259,68.94143Z"/>
</svg>
