<svg id="Capa_2" data-name="Capa 2" xmlns="http://www.w3.org/2000/svg" width="128" height="128" viewBox="0 0 128 128">
  <defs>
    <style>
      .cls-1 {
        fill: red;
      }
    </style>
  </defs>
  <g id="Star">
    <path class="cls-1" d="M64.5943,28.51219c.02142,0,.04291.00023.06464.00072a2.255,2.255,0,0,1,1.87371,1.04553c.90924,1.35873,1.75586,2.7632,2.56079,4.187,1.13337,2.00477,2.24988,4.02157,3.29261,6.07433,1.19653,2.35534,2.32062,4.74807,3.44281,7.14014.43066.9179.77862,1.8753,1.14544,2.822.14557.37566.49048.30363.742.3305,1.15381.12326,2.31634.16563,3.46936.294,1.61792.1802,3.23126.40254,4.84448.62233,1.47943.20157,2.96155.39214,4.43231.6462,1.29077.22294,2.57532.49484,3.84827.804,1.47107.35726,2.9281.77313,4.38806,1.17523a3.13613,3.13613,0,0,1,1.82868,1.19817c.60876.88626.52923,1.742-.1438,2.89786a8.54862,8.54862,0,0,1-1.07361,1.35787q-1.87252,2.083-3.77356,4.1402c-.84076.9145-1.68079,1.8303-2.54474,2.7227-1.53741,1.588-3.06311,3.18937-4.65118,4.7257-1.02015.98683-2.14215,1.86847-3.22083,2.79457a.62139.62139,0,0,0-.2431.69423c.48736,2.16917.9613,4.34174,1.403,6.52064q.53586,2.64354.98389,5.30466c.196,1.167.32361,2.346.46576,3.52157.16022,1.32466.3161,2.65016.445,3.9781a11.5252,11.5252,0,0,1,.00647,1.44556,10.03528,10.03528,0,0,1-.10321,1.79224,2.43071,2.43071,0,0,1-2.51349,2.04235q-.12561,0-.256-.00936a6.10066,6.10066,0,0,1-2.239-.63469c-2.277-1.09513-4.56463-2.16814-6.83624-3.27423-2.47406-1.20474-4.94879-2.4096-7.39581-3.66784-1.363-.70087-2.66724-1.5158-4.00751-2.26223a.51045.51045,0,0,0-.2381-.052.49265.49265,0,0,0-.22943.04947c-1.006.558-2.00012,1.13757-2.99573,1.71431-1.30182.75413-2.5921,1.5287-3.90436,2.2641-2.5755,1.44336-5.14764,2.89413-7.75134,4.28537-1.3772.73586-2.79681,1.40332-4.23749,2.0054a3.70188,3.70188,0,0,1-1.436.27882,4.82753,4.82753,0,0,1-1.3877-.21449A2.63346,2.63346,0,0,1,40.722,96.73837a6.021,6.021,0,0,1-.00311-.63247c-.0202-.00209.22034-2.51516.35474-3.77026.098-.91523.17139-1.83334.28186-2.747.12775-1.0571.2821-2.11106.42859-3.16586.12408-.89351.24127-1.78821.38348-2.67888.19544-1.22366.38074-2.45029.62622-3.66436.36762-1.818.69776-3.65126,1.21765-5.42717.23981-.81926-.21124-1.0868-.63128-1.4673-1.01587-.9203-2.06305-1.8061-3.07624-2.72923-1.59173-1.4502-3.18255-2.902-4.74261-4.38593-1.53589-1.46094-3.07721-2.9209-4.53217-4.46064-1.02618-1.086-1.92035-2.298-2.85571-3.468a6.94647,6.94647,0,0,1-.726-1.10986,2.08548,2.08548,0,0,1,.98724-3.21517,15.85035,15.85035,0,0,1,3.06269-.9642c1.34246-.33327,2.70282-.59817,4.06115-.86323,1.27368-.2486,2.55359-.46634,3.83313-.68407,1.09156-.18573,2.18439-.36623,3.2804-.52253.8363-.11927,1.67859-.1962,2.518-.2935,1.01569-.1177,2.0307-.2411,3.047-.35364.39941-.04423.801-.07406,1.20233-.09573.68677-.03707,1.374-.07876,2.0614-.08576a.61625.61625,0,0,0,.63831-.42544c1.10834-2.5392,2.17084-5.1008,3.36346-7.60013,1.20874-2.533,2.50183-5.0292,3.85065-7.49074a52.45492,52.45492,0,0,1,2.80536-4.4484,2.91208,2.91208,0,0,1,2.43573-1.47668m0-9.5h-.00055a12.39452,12.39452,0,0,0-10.2666,5.5991A61.96219,61.96219,0,0,0,51.022,29.872c-1.52465,2.7824-2.86358,5.38763-4.09326,7.96453-.48742,1.02152-.94922,2.03923-1.39465,3.04658l-.40735.048-1.03027.12073c-.24817.02877-.49628.05547-.74433.08224-.60754.06556-1.29608.13986-2.02136.24329-1.25153.17847-2.4881.38424-3.53271.562-1.31916.2245-2.67542.45527-4.05945.7254-1.473.28744-2.96448.5785-4.53015.96717l-.20948.0518a23.20107,23.20107,0,0,0-4.68164,1.57113,11.73564,11.73564,0,0,0-6.18561,6.85577,11.9095,11.9095,0,0,0,.89789,9.32426,16.44727,16.44727,0,0,0,1.72345,2.63847c.20874.2611.415.5245.62158.78787.7837.99953,1.67194,2.1324,2.74952,3.27276,1.57635,1.6682,3.1759,3.18947,4.72277,4.6606l.16687.15874c1.603,1.52475,3.27417,3.05079,4.65491,4.30895l-.01037.052-.17615.8823c-.24964,1.2347-.43414,2.3993-.61261,3.52554l-.08319.52356c-.12238.7665-.22864,1.53547-.33417,2.3045l-.07788.5657-.09906.70717c-.12293.87463-.2453,1.74933-.35126,2.626-.07562.6255-.13708,1.25376-.19751,1.8821-.03186.33127-.0636.66257-.099.99343a46.68536,46.68536,0,0,0-.36505,4.78136h-.04364l.0011-.10743a12.49325,12.49325,0,0,0,.05524,1.7439,12.04633,12.04633,0,0,0,8.63592,10.62774,14.31089,14.31089,0,0,0,4.126.6177,13.15225,13.15225,0,0,0,5.09918-1.01354c1.7511-.73176,3.45069-1.5365,5.05133-2.3918,2.40961-1.28749,4.78992-2.62239,7.0918-3.91333l.8269-.46363c.85511-.47921,1.70185-.97369,2.54779-1.46961,2.47925,1.272,4.97925,2.4893,7.39844,3.66737,1.408.68554,2.80036,1.34867,4.19281,2.01174q1.35388.6447,2.70612,1.29286a15.45173,15.45173,0,0,0,5.67413,1.5489c.312.02247.62793.0339.93848.0339a11.98768,11.98768,0,0,0,11.80285-9.553,15.37345,15.37345,0,0,0,.3075-3.26677c.00043-.07863-.00006-.1572.00226-.2352l.00531-.16773a18.45342,18.45342,0,0,0-.05207-2.47463c-.13092-1.34834-.28228-2.65467-.46936-4.20147l-.072-.6026c-.12042-1.01483-.257-2.16506-.45636-3.35214-.31109-1.85186-.66162-3.74212-1.042-5.61836-.10577-.52181-.21533-1.05331-.32983-1.59988,1.328-1.29684,2.58813-2.60189,3.80975-3.867l.747-.773c.91406-.9442,1.77649-1.8823,2.61047-2.78949L102.53,69.678q1.93176-2.10115,3.845-4.21883l.05737-.06377a16.71113,16.71113,0,0,0,2.16047-2.86407,11.794,11.794,0,0,0-.23462-13.0575,12.5402,12.5402,0,0,0-7.137-4.97857l-.8125-.2248c-1.2362-.34283-2.51446-.6973-3.85614-1.02313-1.52343-.37007-3.02868-.68427-4.47345-.93377-1.4237-.246-2.79278-.43093-4.11682-.6098l-.64978-.088-.26849-.0366c-1.12824-.15381-2.28436-.31144-3.46179-.45631-.84992-1.80154-1.769-3.7208-2.72657-5.60579-1.1878-2.33837-2.432-4.57117-3.49237-6.4469-1.00146-1.7714-1.96167-3.33987-2.93542-4.79507a11.68271,11.68271,0,0,0-9.55835-5.25983c-.097-.00207-.18622-.00307-.27533-.00307Z"/>
  </g>
</svg>
