<svg id="Capa_2" data-name="Capa 2" xmlns="http://www.w3.org/2000/svg" width="128" height="128" viewBox="0 0 128 128">
  <defs>
    <style>
      .cls-1 {
        fill: red;
      }
    </style>
  </defs>
  <g id="Moustache">
    <path class="cls-1" d="M64,27.90924c18.95211,0,34.31581,16.15837,34.31581,36.09076S82.95211,100.09076,64,100.09076,29.68419,83.93239,29.68419,64,45.04789,27.90924,64,27.90924m0-9.46643C39.85841,18.44281,20.21776,38.87968,20.21776,64S39.85841,109.55719,64,109.55719,107.78224,89.12032,107.78224,64,88.14159,18.44281,64,18.44281Z"/>
    <path class="cls-1" d="M81.26432,68.66533A23.18818,23.18818,0,0,0,64.15582,61.05v-.00823c-.05229,0-.10357.00376-.15578.00412-.05222-.00036-.10357-.00412-.15586-.00412V61.05a23.18818,23.18818,0,0,0-17.1085,7.61536,19.73562,19.73562,0,0,0-4.976,11.50326c.023.01943.05106.03763.07432.057,1.93146-1.70606,4.25813-2.37131,6.18829-1.5112,1.93883.86386,3.00008,3.05468,3.0138,5.64669.36473.09245.72649.1867,1.10357.27156.9043-3.08364,3.04471-5.25235,5.54276-5.25235,2.82277,0,5.184,2.77163,5.82552,6.50131q.16857.00172.3362.005v.00455c.05243,0,.10386-.00166.15586-.00231.052.00065.10335.00231.15578.00231v-.00455q.1677-.00326.3362-.005c.64156-3.72968,3.00275-6.50131,5.82552-6.50131,2.49805,0,4.63846,2.16871,5.54276,5.25235.37708-.08486.73884-.17911,1.10357-.27156.01372-2.592,1.075-4.78283,3.0138-5.64669,1.93016-.86011,4.25683-.19486,6.18829,1.5112.02326-.01936.05135-.03756.07432-.057A19.73562,19.73562,0,0,0,81.26432,68.66533Z"/>
  </g>
</svg>
