<svg id="Capa_2" data-name="Capa 2" xmlns="http://www.w3.org/2000/svg" width="128" height="128" viewBox="0 0 128 128">
  <defs>
    <style>
      .cls-1 {
        fill: red;
      }
    </style>
  </defs>
  <g id="QR_Code" data-name="QR Code">
    <g>
      <path class="cls-1" d="M93.68354,29H67.10127V60.89873H99V29Zm0,26.58228H72.41772V34.31646H93.68354Z"/>
      <rect class="cls-1" x="79.94937" y="41.8481" width="6.20253" height="6.20253"/>
    </g>
    <g>
      <path class="cls-1" d="M55.58228,29H29V60.89873H60.89873V29Zm0,26.58228H34.31646V34.31646H55.58228Z"/>
      <rect class="cls-1" x="41.8481" y="41.8481" width="6.20253" height="6.20253"/>
    </g>
    <g>
      <path class="cls-1" d="M55.58228,67.10127H29V99H60.89873V67.10127Zm0,26.58227H34.31646V72.41772H55.58228Z"/>
      <rect class="cls-1" x="41.8481" y="79.94937" width="6.20253" height="6.20253"/>
    </g>
    <g>
      <polygon class="cls-1" points="93.684 67.101 93.684 72.418 83.051 72.418 83.051 67.101 72.418 67.101 67.101 67.101 67.101 72.418 67.101 77.734 67.101 99 72.418 99 72.418 93.684 83.051 93.684 83.051 88.367 72.418 88.367 72.418 77.734 88.367 77.734 88.367 83.051 99 83.051 99 77.734 99 72.418 99 67.101 93.684 67.101"/>
      <rect class="cls-1" x="83.05063" y="93.68354" width="5.31646" height="5.31646"/>
      <rect class="cls-1" x="93.68354" y="93.68354" width="5.31646" height="5.31646"/>
    </g>
  </g>
</svg>
