<svg id="Capa_2" data-name="Capa 2" xmlns="http://www.w3.org/2000/svg" width="128" height="128" viewBox="0 0 128 128">
  <defs>
    <style>
      .cls-1 {
        fill: red;
      }
    </style>
  </defs>
  <g id="Wrinkles">
    <path class="cls-1" d="M64,27.90924c18.95211,0,34.31581,16.15837,34.31581,36.09076S82.95211,100.09076,64,100.09076,29.68419,83.93239,29.68419,64,45.04789,27.90924,64,27.90924m0-9.46643C39.85841,18.44281,20.21776,38.87968,20.21776,64S39.85841,109.55719,64,109.55719,107.78224,89.12032,107.78224,64,88.14159,18.44281,64,18.44281Z"/>
    <g>
      <path class="cls-1" d="M45.39617,90h4.9964c.03736-9.47736-1.60931-16.23126-4.92688-20.11383a9.433,9.433,0,0,0-5.54376-3.37836L35.60681,65.705v5.08581l3.45953.64368S45.49212,71.93829,45.39617,90Z"/>
      <path class="cls-1" d="M82.60383,90h-4.9964c-.03736-9.47736,1.60931-16.23126,4.92688-20.11383a9.433,9.433,0,0,1,5.54376-3.37836l4.31512-.80285v5.08581l-3.45953.64368S82.50788,71.93829,82.60383,90Z"/>
    </g>
  </g>
</svg>
